<svg xmlns="http://www.w3.org/2000/svg" viewBox="0 0 795.59 265.53"><defs><style>.cls-1{fill:#395f60;}.cls-2{fill:#5f9ea0;}</style></defs><g id="Layer_2" data-name="Layer 2"><g id="Layer_2-2" data-name="Layer 2"><path class="cls-1" d="M110.14,144.81v82.5H88.64v-82.5Zm43,32.63v16.62h-54V177.44Zm10-32.63v82.5h-21.5v-82.5Z"/><path class="cls-1" d="M181.39,227.31v-82.5h64.25v16.63H202.89v16.75h34v15.62h-34v16.88h44.37v16.62Z"/><path class="cls-1" d="M299.64,144.81q14.75,0,22.93,6.94t8.19,18.44q0,12.62-8.12,19.25t-22.88,6.62l-2,1.13H281.39v30.12H260.26v-82.5Zm-3,37.13c4.16,0,7.29-.84,9.37-2.5s3.13-4.34,3.13-8-1.05-6.21-3.13-7.88-5.21-2.5-9.37-2.5H281.39v20.88Zm12.62,4.5,26.38,40.87H311.89l-21.13-36.12Z"/><path class="cls-1" d="M441.89,144.81v82.5h-19V189.44l.62-25.38h-.25l-20.37,63.25H385.51l-20.37-63.25h-.25l.62,25.38v37.87H346.39v-82.5H377l13,42,4.63,17.5h.25l4.75-17.37,12.87-42.13Z"/><path class="cls-1" d="M497.13,143.56q12.51,0,21.57,5.06a34.1,34.1,0,0,1,13.93,14.57q4.88,9.5,4.88,22.87t-4.88,22.88A34.13,34.13,0,0,1,518.7,223.5q-9.08,5.06-21.57,5.06t-21.62-5.06a34,34,0,0,1-14-14.56q-4.87-9.51-4.88-22.88t4.88-22.87a34,34,0,0,1,14-14.57Q484.63,143.57,497.13,143.56Zm0,16.88A17.23,17.23,0,0,0,487,163.31a17.51,17.51,0,0,0-6.25,8.56,40.83,40.83,0,0,0-2.13,14.19,41,41,0,0,0,2.13,14.13,17.5,17.5,0,0,0,6.25,8.62,17.23,17.23,0,0,0,10.12,2.88,17,17,0,0,0,10.07-2.88,17.7,17.7,0,0,0,6.18-8.62,41,41,0,0,0,2.13-14.13,40.83,40.83,0,0,0-2.13-14.19,17.71,17.71,0,0,0-6.18-8.56A17,17,0,0,0,497.13,160.44Z"/><path class="cls-1" d="M625.38,203.69a32.9,32.9,0,0,1-7.62,14.18,31.31,31.31,0,0,1-12.5,8.13,48,48,0,0,1-16,2.56q-12.51,0-21.63-5.06a34.06,34.06,0,0,1-14-14.56q-4.87-9.51-4.87-22.88t4.87-22.87a34,34,0,0,1,14-14.57q9.14-5.06,21.5-5.06A49.47,49.47,0,0,1,605,146a30.93,30.93,0,0,1,12.25,7.44,28.08,28.08,0,0,1,7.12,12.87l-18.87,7.63q-1.75-7.75-5.69-10.63a16.39,16.39,0,0,0-9.94-2.87,17.89,17.89,0,0,0-10.18,2.87,18.1,18.1,0,0,0-6.63,8.56,37.93,37.93,0,0,0-2.31,14.19,41.23,41.23,0,0,0,2.12,14.13,17.14,17.14,0,0,0,6.44,8.62A18.84,18.84,0,0,0,590,211.69a15.93,15.93,0,0,0,10.19-3.32q4.18-3.3,5.68-10.18Z"/><path class="cls-1" d="M658.88,144.81v82.5h-21.5v-82.5Zm43,32.63v16.62h-54V177.44Zm10-32.63v82.5h-21.5v-82.5Z"/><g id="Layer_1-2" data-name="Layer 1"><path class="cls-1" d="M398.16,1.21l151.93,152c-.64,0-1.43.18-2.23.18-10.71,0-21.42.1-32.13-.09a8.13,8.13,0,0,1-5.09-2.12q-55-54.78-109.82-109.71c-3.48-3.48-2.75-3.38-6.24.1Q339.7,96.41,284.78,151.27a6.29,6.29,0,0,1-3.68,2c-11.89.15-23.77.09-35.15.09Z"/><path class="cls-1" d="M0,153.38c11.7-1.64,23.44-3.34,35.18-4.92,13.59-1.84,27.2-3.54,40.79-5.37,15.53-2.1,31-4.31,46.57-6.41,13.5-1.83,27-3.64,40.52-5.31a11,11,0,0,0,6.82-3.46q62.49-62.59,125-125.13A30.83,30.83,0,0,0,297.1,0c1.14,1,1.9,1.53,2.56,2.19,13.14,13.12,26.23,26.28,39.43,39.34,2,2,2,3.31,0,5.25-4.64,4.38-9.07,9-13.6,13.48-2.87,2.87-3,2.87-5.84.09l-18.95-19c-3.54-3.54-2.8-3.29-6-.08Q239.85,96.06,185.12,150.92a8,8,0,0,1-6.22,2.48q-84.75-.08-169.52,0Z"/><path class="cls-1" d="M498,.38c.82.78,1.6,1.49,2.35,2.24Q562.29,64.53,624.15,126.5a16.57,16.57,0,0,0,10.35,5.26c15.56,1.87,31.1,4,46.64,6.05,13.49,1.81,27,3.78,40.45,5.61,12.72,1.71,25.46,3.29,38.18,5,10.49,1.41,21,2.92,31.44,4.36,1.45.2,2.92.3,4.38.61h-7.43q-85.51,0-171,.05a9.6,9.6,0,0,1-7.44-3.14q-54.37-54.57-108.88-109c-3-3-3-3-5.83-.09-6.45,6.46-13,12.88-19.33,19.42-1.89,1.94-3.26,2.25-5.29.12-4.66-4.92-9.51-9.65-14.34-14.41-1.43-1.4-1.84-2.55-.21-4.17q20.48-20.37,40.86-40.82A10.14,10.14,0,0,1,498,.38Z"/><path class="cls-1" d="M382.77,130.73c2.94,0,5.89.07,8.83,0,1.74,0,2.53.55,2.52,2.35q-.06,9,0,17.95c0,1.82-.85,2.38-2.54,2.37q-8.82-.06-17.66,0c-1.71,0-2.49-.57-2.47-2.39q.1-9,0-18c0-1.87.8-2.36,2.5-2.31C376.88,130.79,379.83,130.73,382.77,130.73Z"/><path class="cls-1" d="M412.69,130.73c2.94,0,5.89.05,8.83,0,1.67,0,2.55.4,2.53,2.29q-.1,9,0,18c0,1.8-.7,2.43-2.44,2.41-5.89-.05-11.78-.06-17.67,0-1.92,0-2.59-.78-2.57-2.64.06-5.79.08-11.58,0-17.37,0-2.07.77-2.77,2.79-2.67C407,130.83,409.84,130.73,412.69,130.73Z"/><path class="cls-1" d="M382.63,123.71c-2.85,0-5.7-.06-8.55,0-1.83.06-2.78-.49-2.63-2.5.31-4.18,0-8.49.92-12.53,1-4.61,5.33-7.36,10.12-7.51,3.05-.09,6.1,0,9.14-.08,1.74,0,2.51.61,2.49,2.4q-.06,9,0,18c0,1.66-.75,2.27-2.34,2.24C388.72,123.67,385.68,123.71,382.63,123.71Z"/><path class="cls-1" d="M412.68,123.71c-2.95,0-5.9-.06-8.85,0-1.76,0-2.47-.67-2.45-2.43.05-5.9.06-11.79,0-17.68,0-2,.83-2.58,2.68-2.51,3,.1,6.09,0,9.13.09A11.32,11.32,0,0,1,424,111.69c.16,3.23,0,6.48.06,9.72.05,1.89-.87,2.35-2.53,2.32C418.57,123.66,415.62,123.71,412.68,123.71Z"/><path class="cls-2" d="M113,146.91v82.5H91.53v-82.5Zm43,32.63v16.62H102V179.54Zm10-32.63v82.5h-21.5v-82.5Z"/><path class="cls-2" d="M184.28,229.41v-82.5h64.25v16.63H205.78v16.75h34v15.62h-34v16.88h44.38v16.62Z"/><path class="cls-2" d="M302.53,146.91q14.75,0,22.94,6.94t8.18,18.44q0,12.61-8.12,19.25t-22.88,6.62l-2,1.13H284.28v30.12H263.15v-82.5Zm-3,37.13c4.17,0,7.29-.84,9.37-2.5s3.13-4.34,3.13-8-1-6.21-3.13-7.88-5.2-2.5-9.37-2.5H284.28V184Zm12.62,4.5,26.38,40.87H314.78l-21.13-36.12Z"/><path class="cls-2" d="M444.78,146.91v82.5h-19V191.54l.62-25.38h-.25l-20.37,63.25H388.4L368,166.16h-.25l.62,25.38v37.87H349.28v-82.5H379.9l13,42,4.63,17.5h.25L402.53,189l12.87-42.13Z"/><path class="cls-2" d="M500,145.66q12.5,0,21.56,5.06a34.12,34.12,0,0,1,13.94,14.57q4.88,9.5,4.87,22.87T535.53,211a34.16,34.16,0,0,1-13.94,14.56q-9.06,5.06-21.56,5.06T478.4,225.6a34.06,34.06,0,0,1-14-14.56q-4.87-9.51-4.87-22.88t4.87-22.87a34,34,0,0,1,14-14.57Q487.54,145.67,500,145.66Zm0,16.88a17.26,17.26,0,0,0-10.13,2.87,17.57,17.57,0,0,0-6.25,8.56,41.08,41.08,0,0,0-2.12,14.19,41.23,41.23,0,0,0,2.12,14.13,17.56,17.56,0,0,0,6.25,8.62A17.26,17.26,0,0,0,500,213.79a17,17,0,0,0,10.06-2.88,17.72,17.72,0,0,0,6.19-8.62,41.23,41.23,0,0,0,2.12-14.13A41.08,41.08,0,0,0,516.28,174a17.73,17.73,0,0,0-6.19-8.56A17,17,0,0,0,500,162.54Z"/><path class="cls-2" d="M628.28,205.79A33,33,0,0,1,620.65,220a31.24,31.24,0,0,1-12.5,8.13,47.65,47.65,0,0,1-16,2.56q-12.49,0-21.62-5.06a34,34,0,0,1-14-14.56q-4.87-9.51-4.88-22.88t4.88-22.87a34,34,0,0,1,14-14.57q9.12-5.06,21.5-5.06a49.36,49.36,0,0,1,15.87,2.44,30.79,30.79,0,0,1,12.25,7.44,28.1,28.1,0,0,1,7.13,12.87L608.4,176q-1.74-7.75-5.68-10.63a16.41,16.41,0,0,0-9.94-2.87,17.92,17.92,0,0,0-10.19,2.87A18.15,18.15,0,0,0,576,174a37.72,37.72,0,0,0-2.32,14.19,41,41,0,0,0,2.13,14.13,17,17,0,0,0,6.44,8.62,18.79,18.79,0,0,0,10.68,2.88,15.91,15.91,0,0,0,10.19-3.32q4.18-3.3,5.69-10.18Z"/><path class="cls-2" d="M661.78,146.91v82.5h-21.5v-82.5Zm43,32.63v16.62h-54V179.54Zm10-32.63v82.5h-21.5v-82.5Z"/><text/></g></g></g></svg>